<svg xmlns="http://www.w3.org/2000/svg" viewBox="0 0 128 128"><defs><style>.cls-1{opacity:0;}.cls-2{fill:#1a1a1a;}.cls-3{fill:#fc9504;}.cls-4{fill:#fff;}.cls-5{fill:#fee854;}.cls-6{fill:#fec92b;}.cls-7{fill:#e62e49;}.cls-8{fill:#c62d43;}.cls-9{fill:#feef8e;}</style></defs><title>shield-gold-10</title><g id="Layer_2" data-name="Layer 2"><g id="Shield"><g class="cls-1"><rect class="cls-2" width="128" height="128"/></g><rect class="cls-3" x="59.7" y="11.6" width="8.6" height="12.94"/><path class="cls-4" d="M55,25.54l4,89.68a2,2,0,0,0,.58,1.33l3,3a2,2,0,0,0,2.82,0l3-3a2,2,0,0,0,.58-1.33l4-89.68Z"/><path class="cls-5" d="M83.31,33.75,77.92,22.88a2,2,0,0,0-2.38-1,36.87,36.87,0,0,1-23.08,0,2,2,0,0,0-2.38,1L44.69,33.75a1,1,0,0,0,.9,1.45h4.73a2.08,2.08,0,0,0,1.59-.78A14.32,14.32,0,0,1,63,29.2h2a14.32,14.32,0,0,1,11.07,5.22,2.08,2.08,0,0,0,1.59.78h4.73A1,1,0,0,0,83.31,33.75Z"/><path class="cls-6" d="M55,9.08l1.37,6.07a2,2,0,0,0,2,1.56H69.7a2,2,0,0,0,2-1.56L73,9.08a1,1,0,0,0-1-1.22H56A1,1,0,0,0,55,9.08Z"/><path class="cls-6" d="M51,62.08,31,53.86l4.56,18.42a3,3,0,0,0,1.77,2L51,80Z"/><path class="cls-6" d="M97,53.86l-20,8.22V80l13.64-5.62a3,3,0,0,0,1.77-2Z"/><path class="cls-5" d="M46.44,45.06,20.33,34.3a1.13,1.13,0,0,0-1.52,1.31l6,24.27a3.35,3.35,0,0,0,2,2.31l19.63,8.09Z"/><path class="cls-5" d="M107.67,34.3,81.56,45.06V70.28l19.63-8.09a3.35,3.35,0,0,0,2-2.31l6-24.27A1.13,1.13,0,0,0,107.67,34.3Z"/><path class="cls-7" d="M47.5,75V89.87a4,4,0,0,0,1.17,2.83L61.4,105.42a3.67,3.67,0,0,0,5.2,0L79.33,92.7a4,4,0,0,0,1.17-2.83V75Z"/><path class="cls-8" d="M72,75H56v25l5.4,5.39a3.67,3.67,0,0,0,5.2,0L72,100Z"/><path class="cls-3" d="M62.18,36.92,43.94,41.18a3,3,0,0,0-2.32,2.93v15c0,24.88,17.91,31.22,22.26,32.4,4.4-1.18,22.5-7.52,22.5-32.4v-15a3,3,0,0,0-2.32-2.93L65.82,36.92A8.28,8.28,0,0,0,62.18,36.92Z"/><path class="cls-6" d="M62.18,36.92,43.94,41.18a3,3,0,0,0-2.32,2.93V54.38c0,24.87,17.91,31.22,22.26,32.39,4.4-1.17,22.5-7.52,22.5-32.39V44.11a3,3,0,0,0-2.32-2.93L65.82,36.92A8.28,8.28,0,0,0,62.18,36.92Z"/><path class="cls-3" d="M63.89,79.43c-5.16-1.93-15.27-7.9-15.27-25.05v-7.1L64,43.69l15.38,3.59v7.1C79.38,71.53,69.12,77.51,63.89,79.43Z"/><path class="cls-9" d="M88.7,40l-2.24,8.43a1,1,0,0,1-1.22.71h0a9.69,9.69,0,0,1-7.15-8.22h0A1,1,0,0,1,79,39.79l8.66-1.06A1,1,0,0,1,88.7,40Z"/><path class="cls-9" d="M39.3,40l2.24,8.43a1,1,0,0,0,1.22.71h0a9.69,9.69,0,0,0,7.15-8.22h0A1,1,0,0,0,49,39.79l-8.66-1.06A1,1,0,0,0,39.3,40Z"/><path class="cls-4" d="M86.91,55.44l-18.3-4.62-3.26-14a1.39,1.39,0,0,0-2.7,0l-3.26,14-18.3,4.62a1,1,0,0,0,0,2L59.39,61,63,87.36a1,1,0,0,0,2,0L68.61,61l18.3-3.62A1,1,0,0,0,86.91,55.44Z"/></g></g></svg>