<svg xmlns="http://www.w3.org/2000/svg" viewBox="0 0 128 128"><defs><style>.cls-1{fill:#00cccf;}.cls-2{fill:#b5fff1;}.cls-3{opacity:0;}.cls-4{fill:#1a1a1a;}.cls-5{fill:#fff;}.cls-6{fill:#73f0e8;}</style></defs><title>shield-platinum-7</title><g id="Layer_2" data-name="Layer 2"><g id="Shield"><path class="cls-1" d="M48.59,75V89.87a4,4,0,0,0,1.17,2.83l12.73,12.72a3.67,3.67,0,0,0,5.2,0L80.42,92.7a4,4,0,0,0,1.17-2.83V75Z"/><path class="cls-2" d="M73.09,75h-16v25l5.4,5.39a3.67,3.67,0,0,0,5.2,0l5.4-5.39Z"/><g class="cls-3"><rect class="cls-4" width="128" height="128"/></g><path class="cls-2" d="M52,62.08l-20-8.22,4.56,18.42a3,3,0,0,0,1.76,2L52,80Z"/><path class="cls-2" d="M98.11,53.86l-20,8.22V80l13.63-5.62a3,3,0,0,0,1.77-2Z"/><path class="cls-5" d="M49.47,48.85,26.25,39.28a1,1,0,0,0-1.35,1.17L30.24,62a3,3,0,0,0,1.77,2l17.46,7.2Z"/><path class="cls-5" d="M103.93,39.28,80.71,48.85V71.28l17.46-7.2a3,3,0,0,0,1.77-2l5.34-21.58A1,1,0,0,0,103.93,39.28Z"/><path class="cls-6" d="M63.27,36.92,45,41.18a3,3,0,0,0-2.32,2.93v15C42.71,84,60.62,90.32,65,91.5c4.4-1.18,22.5-7.52,22.5-32.4v-15a3,3,0,0,0-2.32-2.93L66.91,36.92A8.28,8.28,0,0,0,63.27,36.92Z"/><path class="cls-2" d="M63.27,36.92,45,41.18a3,3,0,0,0-2.32,2.93V54.38C42.71,79.25,60.62,85.6,65,86.77c4.4-1.17,22.5-7.52,22.5-32.39V44.11a3,3,0,0,0-2.32-2.93L66.91,36.92A8.28,8.28,0,0,0,63.27,36.92Z"/><path class="cls-5" d="M65,79.43c-5.17-1.93-15.28-7.9-15.28-25.05v-7.1l15.38-3.59,15.38,3.59v7.1C80.47,71.53,70.21,77.51,65,79.43Z"/><path class="cls-5" d="M64.26,92.37l-4.88-7.23a1,1,0,0,1,.26-1.38h0a9.68,9.68,0,0,1,10.9,0h0a1,1,0,0,1,.27,1.38l-4.89,7.23A1,1,0,0,1,64.26,92.37Z"/><path class="cls-5" d="M89.79,40l-2.23,8.43a1,1,0,0,1-1.22.71h0a9.68,9.68,0,0,1-7.16-8.22h0a1,1,0,0,1,.87-1.11l8.66-1.06A1,1,0,0,1,89.79,40Z"/><path class="cls-5" d="M40.39,40l2.24,8.43a1,1,0,0,0,1.22.71h0A9.69,9.69,0,0,0,51,40.9h0a1,1,0,0,0-.87-1.11l-8.65-1.06A1,1,0,0,0,40.39,40Z"/><path class="cls-6" d="M74.36,58.63l-6-2.36-2.36-6a1,1,0,0,0-1.86,0l-2.36,6-6,2.36a1,1,0,0,0,0,1.86l6,2.36,2.36,6a1,1,0,0,0,1.86,0l2.36-6,6-2.36A1,1,0,0,0,74.36,58.63Z"/></g></g></svg>