<svg xmlns="http://www.w3.org/2000/svg" viewBox="0 0 128 128"><defs><style>.cls-1{fill:#0049c7;}.cls-2{opacity:0;}.cls-3{fill:#1a1a1a;}.cls-4{fill:#fff;}.cls-5{fill:#b5fff1;}.cls-6{fill:#73f0e8;}.cls-7{fill:#00cccf;}</style></defs><title>shield-platinum-12</title><g id="Layer_2" data-name="Layer 2"><g id="Shield"><path class="cls-1" d="M64,25.09c7.22,0,13.07-.57,13.07-1.26L76,11.58a.8.8,0,0,0-1.35-.52l-3.68,3.48L64.65,6.05a.81.81,0,0,0-1.3,0l-6.27,8.49L53.4,11.06a.8.8,0,0,0-1.35.52L50.93,23.83C50.93,24.52,56.78,25.09,64,25.09Z"/><g class="cls-2"><rect class="cls-3" width="128" height="128"/></g><path class="cls-4" d="M111.39,14.2l-4.24-.29a2,2,0,0,0-1.39.43L19.47,84.11l5.89,6.77,87.4-76A2,2,0,0,0,111.39,14.2Z"/><path class="cls-5" d="M112.76,14.89l-87.4,76,5.88,6.76,81.09-75.75a2,2,0,0,0,.62-1.31l.29-4.24A2,2,0,0,0,112.76,14.89Z"/><path class="cls-5" d="M14.76,16.34l.29,4.24a2,2,0,0,0,.62,1.31L96.76,97.64l5.88-6.76-87.4-76A2,2,0,0,0,14.76,16.34Z"/><path class="cls-4" d="M22.24,14.34a2,2,0,0,0-1.39-.43l-4.24.29a2,2,0,0,0-1.37.69l87.4,76,5.89-6.77Z"/><rect class="cls-6" x="15.42" y="89.31" width="8.6" height="12.94" transform="translate(79.06 18.05) rotate(48.99)"/><path class="cls-4" d="M44.22,100.06l-11.73,3.07A2,2,0,0,1,30.14,102,36.89,36.89,0,0,0,15,84.59a2,2,0,0,1-.78-2.48l4.67-11.19a1,1,0,0,1,1.68-.27l3.1,3.57a2,2,0,0,1,.45,1.71,14.34,14.34,0,0,0,3.33,11.78l1.34,1.54A14.37,14.37,0,0,0,40,94.18a2.05,2.05,0,0,1,1.63.68l3.11,3.57A1,1,0,0,1,44.22,100.06Z"/><path class="cls-4" d="M7,94.86l5.48-2.94a2,2,0,0,1,2.46.44L22.44,101a2,2,0,0,1,.1,2.5l-3.68,5a1,1,0,0,1-1.56.06L6.73,96.4A1,1,0,0,1,7,94.86Z"/><rect class="cls-6" x="103.98" y="89.31" width="8.6" height="12.94" transform="translate(251.6 76.91) rotate(131.01)"/><path class="cls-4" d="M83.78,100.06l11.73,3.07A2,2,0,0,0,97.86,102,36.89,36.89,0,0,1,113,84.59a2,2,0,0,0,.78-2.48l-4.67-11.19a1,1,0,0,0-1.68-.27l-3.1,3.57a2,2,0,0,0-.45,1.71,14.34,14.34,0,0,1-3.33,11.78l-1.34,1.54A14.37,14.37,0,0,1,88,94.18a2.05,2.05,0,0,0-1.63.68l-3.11,3.57A1,1,0,0,0,83.78,100.06Z"/><path class="cls-4" d="M121,94.86l-5.48-2.94a2,2,0,0,0-2.46.44L105.56,101a2,2,0,0,0-.1,2.5l3.68,5a1,1,0,0,0,1.56.06L121.27,96.4A1,1,0,0,0,121,94.86Z"/><path class="cls-6" d="M49,63.08,29,54.86l4.56,18.42a3,3,0,0,0,1.77,2L49,81Z"/><path class="cls-6" d="M99,54.86l-20,8.22V81l13.64-5.62a3,3,0,0,0,1.77-2Z"/><path class="cls-4" d="M11.91,33.45l7.75,24.31A4,4,0,0,0,22,60.24l24.49,10V45.06L13.23,32.21A1,1,0,0,0,11.91,33.45Z"/><path class="cls-4" d="M114.77,32.21,81.56,45.06V70.28l24.49-10a4,4,0,0,0,2.29-2.48l7.75-24.31A1,1,0,0,0,114.77,32.21Z"/><path class="cls-7" d="M52,88v20.39a4,4,0,0,0,1.17,2.83L61.88,120a3,3,0,0,0,4.24,0l8.74-8.74A4,4,0,0,0,76,108.39V88Z"/><path class="cls-5" d="M47.5,75V89.87a4,4,0,0,0,1.17,2.83L61.4,105.42a3.67,3.67,0,0,0,5.2,0L79.33,92.7a4,4,0,0,0,1.17-2.83V75Z"/><path class="cls-6" d="M72,75H56v25l5.4,5.39a3.67,3.67,0,0,0,5.2,0L72,100Z"/><path class="cls-7" d="M62.18,36.92,43.94,41.18a3,3,0,0,0-2.32,2.93v15c0,24.88,17.91,31.22,22.26,32.4,4.4-1.18,22.5-7.52,22.5-32.4v-15a3,3,0,0,0-2.32-2.93L65.82,36.92A8.28,8.28,0,0,0,62.18,36.92Z"/><path class="cls-6" d="M76,11.58a.8.8,0,0,0-1.35-.52l-3.68,3.48L64.65,6.05a.81.81,0,0,0-1.3,0l-6.27,8.49L53.4,11.06a.8.8,0,0,0-1.35.52L50.93,23.83H77.07Z"/><path class="cls-5" d="M62.18,36.92,43.94,41.18a3,3,0,0,0-2.32,2.93V54.38c0,24.87,17.91,31.22,22.26,32.39,4.4-1.17,22.5-7.52,22.5-32.39V44.11a3,3,0,0,0-2.32-2.93L65.82,36.92A8.28,8.28,0,0,0,62.18,36.92Z"/><path class="cls-6" d="M63.89,79.43c-5.16-1.93-15.27-7.9-15.27-25.05v-7.1L64,43.69l15.38,3.59v7.1C79.38,71.53,69.12,77.51,63.89,79.43Z"/><path class="cls-6" d="M88.7,40l-2.24,8.43a1,1,0,0,1-1.22.71h0a9.69,9.69,0,0,1-7.15-8.22h0A1,1,0,0,1,79,39.79l8.66-1.06A1,1,0,0,1,88.7,40Z"/><path class="cls-6" d="M39.3,40l2.24,8.43a1,1,0,0,0,1.22.71h0a9.69,9.69,0,0,0,7.15-8.22h0A1,1,0,0,0,49,39.79l-8.66-1.06A1,1,0,0,0,39.3,40Z"/><path class="cls-5" d="M71.65,23.83l-.73-9.29h0L64.65,6.05a.81.81,0,0,0-1.3,0l-6.27,8.49h0l-.73,9.29Z"/><path class="cls-4" d="M86.91,55.44l-18.3-4.62-3.26-14a1.39,1.39,0,0,0-2.7,0l-3.26,14-18.3,4.62a1,1,0,0,0,0,2L59.39,61,63,87.36a1,1,0,0,0,2,0L68.61,61l18.3-3.62A1,1,0,0,0,86.91,55.44Z"/><ellipse class="cls-7" cx="64" cy="23.83" rx="13.07" ry="1.26"/></g></g></svg>