<svg xmlns="http://www.w3.org/2000/svg" viewBox="0 0 128 128"><defs><style>.cls-1{fill:#bafff3;}.cls-2{fill:#73f0d9;}.cls-3{opacity:0;}.cls-4{fill:#1a1a1a;}.cls-5{fill:#4783eb;}.cls-6{fill:#1251bd;}.cls-7{fill:#00138f;}</style></defs><title>shield-sapphire-5</title><g id="Layer_2" data-name="Layer 2"><g id="Shield"><path class="cls-1" d="M47.5,75V89.87a4,4,0,0,0,1.17,2.83L61.4,105.42a3.67,3.67,0,0,0,5.2,0L79.33,92.7a4,4,0,0,0,1.17-2.83V75Z"/><path class="cls-2" d="M72,75H56v25l5.4,5.39a3.67,3.67,0,0,0,5.2,0L72,100Z"/><g class="cls-3"><rect class="cls-4" width="128" height="128"/></g><path class="cls-5" d="M51,62.08,31,53.86l4.56,18.42a3,3,0,0,0,1.77,2L51,80Z"/><path class="cls-5" d="M97,53.86l-20,8.22V80l13.64-5.62a3,3,0,0,0,1.77-2Z"/><path class="cls-6" d="M48.38,48.85,25.16,39.28a1,1,0,0,0-1.35,1.17L29.15,62a3,3,0,0,0,1.77,2l17.46,7.2Z"/><path class="cls-6" d="M102.84,39.28,79.62,48.85V71.28l17.46-7.2a3,3,0,0,0,1.77-2l5.34-21.58A1,1,0,0,0,102.84,39.28Z"/><path class="cls-7" d="M62.18,36.92,43.94,41.18a3,3,0,0,0-2.32,2.93v15c0,24.88,17.91,31.22,22.26,32.4,4.4-1.18,22.5-7.52,22.5-32.4v-15a3,3,0,0,0-2.32-2.93L65.82,36.92A8.28,8.28,0,0,0,62.18,36.92Z"/><path class="cls-6" d="M63.88,85.22c-5.36-1.55-20.76-8-20.76-30.84V44.11a1.5,1.5,0,0,1,1.16-1.47l18.24-4.25a6.17,6.17,0,0,1,3,0l18.24,4.25a1.5,1.5,0,0,1,1.16,1.47V54.38C84.88,77.21,69.3,83.67,63.88,85.22Z"/><path class="cls-5" d="M64,39.72a4.92,4.92,0,0,1,1.14.13l18.24,4.26V54.38c0,21.24-14,27.6-19.49,29.27-5.42-1.67-19.27-8-19.27-29.27V44.11l18.24-4.26A4.92,4.92,0,0,1,64,39.72m0-3a8.6,8.6,0,0,0-1.82.2L43.94,41.18a3,3,0,0,0-2.32,2.93V54.38c0,24.87,17.91,31.22,22.26,32.39,4.4-1.17,22.5-7.52,22.5-32.39V44.11a3,3,0,0,0-2.32-2.93L65.82,36.92a8.6,8.6,0,0,0-1.82-.2Z"/><path class="cls-7" d="M63.9,77.29c-5.26-2.18-13.28-8-13.28-22.91V48.87L64,45.74l13.38,3.13v5.51C77.38,69.33,69.24,75.11,63.9,77.29Z"/></g></g></svg>