<svg xmlns="http://www.w3.org/2000/svg" viewBox="0 0 128 128"><defs><style>.cls-1{opacity:0;}.cls-2{fill:#1a1a1a;}.cls-3{fill:#60f7c5;}.cls-4{fill:#420ca3;}.cls-5{fill:#9652e3;}.cls-6{fill:#5f29c2;}</style></defs><title>shield-amethyst-2</title><g id="Layer_2" data-name="Layer 2"><g id="Shield"><g class="cls-1"><rect class="cls-2" width="128" height="128"/></g><path class="cls-3" d="M52.44,50.82,26.86,40.28a1,1,0,0,0-1.35,1.17L32,67.84a3,3,0,0,0,1.77,2.06l15.58,6.41a4,4,0,0,0,5.52-3.69V54.52A4,4,0,0,0,52.44,50.82Z"/><path class="cls-3" d="M101.14,40.28,75.56,50.82a4,4,0,0,0-2.47,3.7v18.1a4,4,0,0,0,5.52,3.69L94.19,69.9A3,3,0,0,0,96,67.84l6.53-26.39A1,1,0,0,0,101.14,40.28Z"/><path class="cls-4" d="M62.18,36.92,43.94,41.18a3,3,0,0,0-2.32,2.93v15c0,23.4,15.85,30.41,21.35,32.13a3.05,3.05,0,0,0,1.82,0c5.56-1.73,21.59-8.73,21.59-32.14v-15a3,3,0,0,0-2.32-2.93L65.82,36.92A8.28,8.28,0,0,0,62.18,36.92Z"/><path class="cls-5" d="M62.18,36.92,43.94,41.18a3,3,0,0,0-2.32,2.93V54.38c0,24.87,17.91,31.22,22.26,32.39,4.4-1.17,22.5-7.52,22.5-32.39V44.11a3,3,0,0,0-2.32-2.93L65.82,36.92A8.28,8.28,0,0,0,62.18,36.92Z"/><path class="cls-6" d="M63.89,79.43c-5.16-1.93-15.27-7.9-15.27-25.05v-7.1L64,43.69l15.38,3.59v7.1C79.38,71.53,69.12,77.51,63.89,79.43Z"/></g></g></svg>